<svg width="16" height="17" viewBox="0 0 16 17" fill="none" xmlns="http://www.w3.org/2000/svg">
<path d="M12.3906 10.9531C8.25781 10.9531 5.63281 8.39062 5.63281 4.28125C5.63281 3.38281 5.84375 2.1875 6.125 1.55469C6.21875 1.35156 6.24219 1.21094 6.24219 1.10156C6.24219 0.851562 6.0625 0.609375 5.74219 0.609375C5.625 0.609375 5.4375 0.640625 5.24219 0.710938C2.33594 1.875 0.398438 4.94531 0.398438 8.20312C0.398438 12.7891 3.86719 16.0781 8.4375 16.0781C11.75 16.0781 14.6484 14.0781 15.6719 11.4688C15.7578 11.2656 15.7812 11.0625 15.7812 10.9531C15.7812 10.6484 15.5469 10.4453 15.2969 10.4453C15.1641 10.4453 15.0391 10.4766 14.8594 10.5547C14.2734 10.7578 13.3281 10.9531 12.3906 10.9531Z" fill="#1B1E25"/>
</svg>
